<svg width="400" height="400" viewBox="0 0 24 24"
  xmlns="http://www.w3.org/2000/svg">
  <path fill="#fff" d="M18.919 2.713c-.06-.318.356-.446.33-1.074-.034-1.442-2.066-1.098-1.57.565.75 2.721.205 4.612-.269 5.566-.236.477-.688-.092-.762-.442-.572-2.69-1.644-3.394-.963-5.238.537-1.45-1.713-2.035-1.57.028.014.446.578 3.164.527 4.734-.006.19-.486.32-.698.24a9.843 9.843 0 00-3.012-.596C6.637 6.496 3 9.985 3 14.281c0 3.223 1.755 5.775 4.372 6.85-.569.804-.454 1.595-.959 2.606 4.137-.005 5.163-2.988 7.85-2.98 2.48-.003 2.32.019 4.804-.017.5-.008.278-1.004.166-1.212-2.749-5.109.421-9.012.457-10.362.059-2.27-.21-3.46-.771-6.453zM15.817 18.49c-1.885-.387-4.998 1.998-6.938 1.645-1.038-.2-1.869-3.93-2.556-5.618-.217-.507-.519-.701-.754-1.073-.215-.342-.052-.769-.11-.984-.34-1.281 3.488-3.274 6.875-3.799l2.952.148.21.84.918.203-.241 1.63-4.248-.607c-1.58.618-2.69.755-3.903 1.875.259.396.096.945.363 1.341.094.14.544.189.636.32-.16.41.408 1.397.464 1.658l.317 1.959c1.456-.514 3.373-1.423 4.513-1.534.866.016.197-1.417.022-2.212-.214-.996-1.723-.103-3.018.437l.643 1.373-.516.75-.236-.55-.35.297-.969-2.671.735-.905.833.248c.885-.386 2.228-1.443 3.274-.993.227.097.241.301.332.662l.49.213c.286 1.585 2.412 5.79.262 5.347z" />
</svg>